# xmcd
#
# Track frame offsets:
#	150
#	10104
#	19931
#	28510
#	38552
#	50875
#	66364
#	76924
#	85493
#	95935
#	107627
#	122215
#	131928
#	141183
#	156309
#	169457
#	181080
#	189941
#	208081
#	223072
#	236990
#	250808
#
# Disc length: 3505 seconds
#
# Revision: 1
# Processed by: cddbd v1.5.2PL0 Copyright (c) Steve Scherf et al.
# Submitted via: audiograbber 1.82.02
#
DISCID=480daf16
DTITLE=Jim Reeves -  I'm A Hit Again - Disc 1
DYEAR=2008
DGENRE=Country
TTITLE0=Am I Losing You
TTITLE1=Gypsy feet
TTITLE2=Read This Letter
TTITLE3=My Lips Are Sealed
TTITLE4=Jim Reeves - If Heartache Is the Fashion
TTITLE5=Jim Reeves - Crying Is My Favorite Mood
TTITLE6=Jim Reeves - It's Nothin' To Me
TTITLE7=Jim Reeves - You're the Sweetest Thing
TTITLE8=Jim Reeves - Your Old Love Letters
TTITLE9=Jim Reeves - Deep Dark Water
TTITLE10=Jim Reeves - I'm A Hit Again
TTITLE11=Jim Reeves - Four Walls
TTITLE12=Jim Reeves - Crying In My Sleep
TTITLE13=Jim Reeves - Lonesome Waltz
TTITLE14=Jim Reeves - Distant Drums
TTITLE15=Jim Reeves - He Will
TTITLE16=Jim Reeves - Rudolph The Red-Nosed Reindeer
TTITLE17=Jim Reeves - Danny Boy
TTITLE18=Jim Reeves - I Was Just Walking Out The Door
TTITLE19=Jim Reeves - A Roomful Of Roses
TTITLE20=Jim Reeves - Streets Of Laredo
TTITLE21=Jim Reeves - He'll Have To Go
EXTD=
EXTT0=
EXTT1=
EXTT2=
EXTT3=
EXTT4=
EXTT5=
EXTT6=
EXTT7=
EXTT8=
EXTT9=
EXTT10=
EXTT11=
EXTT12=
EXTT13=
EXTT14=
EXTT15=
EXTT16=
EXTT17=
EXTT18=
EXTT19=
EXTT20=
EXTT21=
PLAYORDER=
